<?xml version="1.0" encoding="UTF-8" standalone="no"?>
<!-- Created with Inkscape (http://www.inkscape.org/) -->

<svg
   width="16"
   height="16"
   viewBox="0 0 16 16"
   version="1.1"
   id="svg5"
   xml:space="preserve"
   inkscape:version="1.2.1 (9c6d41e4, 2022-07-14)"
   sodipodi:docname="5g-check.svg"
   xmlns:inkscape="http://www.inkscape.org/namespaces/inkscape"
   xmlns:sodipodi="http://sodipodi.sourceforge.net/DTD/sodipodi-0.dtd"
   xmlns="http://www.w3.org/2000/svg"
   xmlns:svg="http://www.w3.org/2000/svg"><sodipodi:namedview
     id="namedview7"
     pagecolor="#505050"
     bordercolor="#ffffff"
     borderopacity="1"
     inkscape:showpageshadow="0"
     inkscape:pageopacity="0"
     inkscape:pagecheckerboard="1"
     inkscape:deskcolor="#505050"
     inkscape:document-units="px"
     showgrid="false"
     inkscape:zoom="34.9375"
     inkscape:cx="5.2522361"
     inkscape:cy="8.2576029"
     inkscape:window-width="1433"
     inkscape:window-height="895"
     inkscape:window-x="1832"
     inkscape:window-y="55"
     inkscape:window-maximized="0"
     inkscape:current-layer="layer1" /><defs
     id="defs2" /><g
     inkscape:groupmode="layer"
     id="layer2"
     inkscape:label="Layer 2"
     transform="matrix(0.09360478,4.13169e-4,-4.13169e-4,0.09360478,13.113075,10.26523)"><path
       style="display:inline;color:#000000;fill:#ff0000;stroke-width:1.29674;stroke-linejoin:bevel;-inkscape-stroke:none"
       d="M 11.794073,0.37023611 6.2145301,12.760214 4.2363206,7.945039 2.1144245,8.0043638 5.2672996,15.59684 7.0528549,15.629764 13.885576,0.4600095 Z"
       id="path1143"
       sodipodi:nodetypes="cccccccc"
       transform="matrix(10.683007,-0.04715451,0.04715451,10.683007,-140.57112,-109.04518)" /></g><g
     inkscape:label="Layer 1"
     inkscape:groupmode="layer"
     id="layer1"
     style="display:inline"><text
       xml:space="preserve"
       style="fill:#000000"
       x="3.4942529"
       y="6.9885058"
       id="text113"><tspan
         sodipodi:role="line"
         id="tspan111"
         x="3.4942529"
         y="6.9885058" /></text><g
       aria-label="5G"
       id="text117"
       style="font-size:14.6667px;fill:#fcfcfc;fill-opacity:0.49096385"
       transform="translate(0.0775751,-0.82204075)"><path
         d="M 0.71146906,3.8202296 H 5.8448276 V 5.5291271 H 2.2242591 v 1.8206331 q 0.2278679,-0.092017 0.4873842,-0.1314536 0.2595163,-0.046009 0.5506809,-0.046009 1.4051857,0 2.2786795,0.9201757 0.8734938,0.9201756 0.8734938,2.3924567 0,1.54458 -0.9494498,2.445037 -0.9431201,0.893885 -2.5761737,0.893885 -0.6076479,0 -1.2279551,-0.105163 -0.6203072,-0.105162 -1.26593311,-0.315488 v -1.748334 q 0.52536223,0.26948 1.07604311,0.407507 0.5570106,0.131453 1.1140211,0.131453 0.9874278,0 1.5001307,-0.433797 0.5127029,-0.44037 0.5127029,-1.2751 0,-0.7690039 -0.5127029,-1.2290919 -0.5063733,-0.4666605 -1.3545484,-0.4666605 -0.5000435,0 -1.0064168,0.1314538 Q 1.224172,9.0455123 0.71146906,9.301847 Z"
         style="font-weight:bold;font-family:Menlo;-inkscape-font-specification:Menlo;fill:#fcfcfc;stroke:#ffffff;stroke-width:0.450328;stroke-linejoin:bevel;stroke-dasharray:none;fill-opacity:0.49096385"
         id="path290" /><path
         d="M 13.042002,11.995005 V 10.093228 H 11.67819 V 8.4383494 h 3.105711 v 4.5642636 q -0.573882,0.48712 -1.269291,0.740691 -0.688657,0.246897 -1.478589,0.246897 -1.957946,0 -3.0246909,-1.341253 -1.0667439,-1.347925 -1.0667439,-3.8235705 0,-2.5156831 1.0734955,-3.84359 1.0802473,-1.327907 3.1124613,-1.327907 0.607639,0 1.195023,0.1734954 0.587384,0.1668225 1.100502,0.4871217 v 2.182038 Q 14.007472,5.9627037 13.460599,5.6957878 12.920475,5.4221989 12.272326,5.4221989 q -1.134259,0 -1.694637,0.8474582 -0.560379,0.8407853 -0.560379,2.5557204 0,1.6615515 0.540124,2.5290275 0.540123,0.867477 1.573109,0.867477 0.310571,0 0.540124,-0.05338 0.229553,-0.06005 0.371335,-0.173495 z"
         style="font-weight:bold;font-family:Menlo;-inkscape-font-specification:Menlo;fill:#fcfcfc;stroke:#ffffff;stroke-width:0.468626;stroke-linejoin:bevel;stroke-dasharray:none;fill-opacity:0.49096385"
         id="path287" /></g></g></svg>
